<?xml version="1.0" encoding="iso-8859-1"?>
<!-- Generator: Adobe Illustrator 19.0.0, SVG Export Plug-In . SVG Version: 6.00 Build 0)  -->
<svg version="1.1" id="Layer_1" xmlns="http://www.w3.org/2000/svg" xmlns:xlink="http://www.w3.org/1999/xlink" x="0px" y="0px"
	 viewBox="0 0 512.003 512.003" style="enable-background:new 0 0 512.003 512.003;" xml:space="preserve">
<g>
	<g>
		<path d="M485.736,333.77c-9.153,9.62-19.429,17.959-30.529,24.897c-4.653,2.908-9.449,5.569-14.369,7.974
			c0.011,0,0.021-0.002,0.032-0.002c12.324,0,22.315,9.991,22.315,22.315s-9.991,22.315-22.315,22.315
			c-12.325,0-22.315-9.991-22.315-22.315c0-6.064,2.427-11.554,6.352-15.576c-5.156,1.853-10.412,3.441-15.748,4.751
			c-14.035,3.446-26.214,4.542-39.127,4.542c-3.682,42.049,29.455,77.415,70.839,77.415c39.284,0,71.131-31.847,71.131-71.131
			C512,366.684,501.759,346.813,485.736,333.77z"/>
	</g>
</g>
<g>
	<g>
		<path d="M201.288,382.671c-39.794,0-33.297,0-49.437,0c0.585,1.995,0.912,4.1,0.912,6.284c0,12.324-9.991,22.315-22.315,22.315
			s-22.315-9.991-22.315-22.315c0-2.184,0.327-4.29,0.913-6.284c-15.661,0-26.037,0-49.436,0c-0.182,2.072-0.292,4.165-0.292,6.284
			c0,39.284,31.847,71.131,71.131,71.131c39.284,0,71.131-31.847,71.131-71.131C201.579,386.836,201.469,384.743,201.288,382.671z"
			/>
	</g>
</g>
<g>
	<g>
		<path d="M491.998,250.842c-2.488-12.785-10.86-23.647-22.59-29.31c-33.062-15.958-59.447-44.284-72.622-82.961
			c5.848,5.574,13.125,9.662,21.233,11.64c5.695,1.39,11.182-2.934,11.182-8.787c0-7.331,0-66.093,0-73.753
			c0-5.862-5.51-10.172-11.182-8.787c-3.86,0.942-7.532,2.36-10.953,4.189c-12.788,6.839-22.033,19.424-24.312,34.303l-5.731-16.824
			c-2.148-6.281-7.916-10.862-14.755-11.313c-0.423-0.195-0.849-0.388-1.294-0.551c-4.698-1.727-38.074-13.996-42.729-15.706
			c-8.952-3.293-18.881,1.3-22.173,10.254s1.299,18.881,10.254,22.173c6.747,2.479,30.913,11.363,38.423,14.123
			c2.525,95.033,2.466,88.583,2.199,93.926c-2.347,46.979-31.989,86.43-73.118,103.238v-7.738c0-28.594-15.539-53.543-38.621-66.913
			c12.714-2.806,23.681-10.242,31.052-20.454c6.195-8.583,9.857-19.118,9.857-30.513c0-4.991-4.047-9.037-9.038-9.037H136.076
			c-4.991,0-9.037,4.047-9.037,9.037c0,15.518,0,25.394,0,40.847C61.643,215.88,8.672,265.883,0.143,329.941
			c-1.279,9.605,6.191,18.183,15.941,18.183h257.746c36.031,0,70.704,0,97.891,0c34.622,0,67.703-14.641,90.963-40.286
			l19.366-21.353C490.8,276.836,494.487,263.627,491.998,250.842z"/>
	</g>
</g>
<g>
</g>
<g>
</g>
<g>
</g>
<g>
</g>
<g>
</g>
<g>
</g>
<g>
</g>
<g>
</g>
<g>
</g>
<g>
</g>
<g>
</g>
<g>
</g>
<g>
</g>
<g>
</g>
<g>
</g>
</svg>
